Coordinates
version=1
nRows=12
nColumns=28
inDegrees=yes

Units are S.I. units (second, meters, Newtons, ...)
Angles are in degrees.

endheader
time	pelvis_tilt	pelvis_list	pelvis_rotation	pelvis_tx	pelvis_ty	pelvis_tz	hip_flexion_r	hip_adduction_r	hip_rotation_r	knee_angle_r	ankle_angle_r	subtalar_angle_r	mtp_angle_r	hip_flexion_l	hip_adduction_l	hip_rotation_l	knee_angle_l	socket_flexion	socket_adduction	socket_rotation	socket_tx	socket_ty	socket_tz	foot_flex	lumbar_extension	lumbar_bending	lumbar_rotation
      0.00000000	      0.53338272	    -11.47578776	    -12.69315129	     -0.85925751	      0.98952892	      0.33748273	    -23.73560637	     10.86399470	     14.77080228	     -9.76816609	      1.32180740	    -16.52693799	     22.47221051	     24.99479655	    -16.25055424	      9.12453345	     -6.26225350	      0.00000000	      0.00000000	      0.00000000	      0.00000000	     -0.00169165	      0.00000000	      2.61445408	    -14.26056522	      7.99563233	     20.49178599
      0.00416667	      0.46074869	    -11.52972837	    -12.61635836	     -0.85407145	      0.98877269	      0.33688999	    -23.85222153	     10.88150960	     14.82135776	     -9.93127785	      1.27292811	    -16.50714897	     22.48023768	     24.86855248	    -16.19785769	      9.11388588	     -6.28126894	      0.00000000	      0.00000000	      0.00000000	      0.00000000	     -0.00200187	      0.00000000	      2.50087376	    -14.10837868	      8.07799511	     20.50419152
      0.00833333	      0.33390894	    -11.69407070	    -12.66849926	     -0.84861137	      0.98793100	      0.33641908	    -23.87343620	     10.96965507	     14.80909758	    -10.25876525	      1.02192539	    -16.44772874	     22.49954792	     24.64081917	    -16.34031036	      9.12628368	     -6.08113808	      0.00000000	      0.00000000	      0.00000000	      0.00000000	     -0.00270778	      0.00000000	      2.01362693	    -13.96032461	      8.29814259	     20.52793600
      0.01250000	      0.25586809	    -11.76011052	    -12.60732970	     -0.84305598	      0.98714678	      0.33576773	    -23.96290592	     10.98853374	     14.86541560	    -10.49509444	      0.92717129	    -16.42396176	     22.50977653	     24.49282279	    -16.30161136	      9.11672834	     -6.10272128	      0.00000000	      0.00000000	      0.00000000	      0.00000000	     -0.00307931	      0.00000000	      1.91548150	    -13.80994486	      8.39882660	     20.53818585
      0.01666667	      0.11492845	    -11.95946950	    -12.72836730	     -0.83740377	      0.98634328	      0.33526733	    -23.89010689	     11.09350763	     14.85066573	    -11.00705584	      0.53672142	    -16.35207819	     22.54763895	     24.25199812	    -16.49665850	      9.11018865	     -5.93882505	      0.00000000	      0.00000000	      0.00000000	      0.00000000	     -0.00385960	      0.00000000	      1.44515228	    -13.68358160	      8.65972394	     20.56314753
      0.02083333	      0.02440777	    -12.02311733	    -12.66687548	     -0.83150249	      0.98551210	      0.33457651	    -23.96705555	     11.10707564	     14.91696501	    -11.27839468	      0.42236215	    -16.32509164	     22.56691628	     24.09402042	    -16.45329199	      9.10979908	     -5.95325905	      0.00000000	      0.00000000	      0.00000000	      0.00000000	     -0.00435759	      0.00000000	      1.34321224	    -13.51591858	      8.76588537	     20.57766478
      0.02500000	     -0.43289681	    -12.20911890	    -12.88702388	     -0.82558490	      0.98425387	      0.33405380	    -23.46377376	     11.22997800	     14.76435029	    -11.95442865	     -0.43226131	    -16.22064089	     24.84781477	     24.21332406	    -16.69644237	      9.12445291	     -5.90209208	      0.00000000	      0.00000000	      0.00000000	      0.00000000	     -0.00521583	      0.00000000	      0.95632656	    -13.02810449	      9.10259487	     20.76818312
      0.02916667	     -0.51906592	    -12.26907957	    -12.87118536	     -0.81945528	      0.98350585	      0.33341976	    -23.48466309	     11.22685897	     14.79266672	    -12.34414264	     -0.64653583	    -16.19418126	     24.83378958	     23.96928545	    -16.67755382	      9.17822250	     -5.82330633	      0.00000000	      0.00000000	      0.00000000	      0.00000000	     -0.00588228	      0.00000000	      0.67134950	    -12.86614323	      9.18998155	     20.74980672
      0.03333333	     -0.61351652	    -12.33497088	    -12.88527172	     -0.81332208	      0.98278017	      0.33277185	    -23.45522624	     11.21936879	     14.79365590	    -12.80853038	     -0.96282531	    -16.15198769	     24.82094640	     23.73394397	    -16.67136815	      9.19556431	     -5.77214027	      0.00000000	      0.00000000	      0.00000000	      0.00000000	     -0.00660681	      0.00000000	      0.35761398	    -12.70840840	      9.29785249	     20.72623055
      0.03750000	     -0.72340296	    -12.38921185	    -12.89674699	     -0.80711115	      0.98204234	      0.33208800	    -23.39006418	     11.20312495	     14.77429259	    -13.29879482	     -1.34325941	    -16.09406371	     24.83369238	     23.52509996	    -16.64808933	      9.18380153	     -5.75377980	      0.00000000	      0.00000000	      0.00000000	      0.00000000	     -0.00736383	      0.00000000	      0.08023243	    -12.52827564	      9.40656615	     20.70683255
      0.04166667	     -0.79225117	    -12.41104579	    -12.81169912	     -0.80070561	      0.98135119	      0.33131128	    -23.44932897	     11.17206826	     14.85789169	    -13.61556443	     -1.47653157	    -16.06812746	     24.83932047	     23.31910303	    -16.54613192	      9.23124318	     -5.80392102	      0.00000000	      0.00000000	      0.00000000	      0.00000000	     -0.00813554	      0.00000000	     -0.02542372	    -12.32639884	      9.47440029	     20.70041917
      0.04583333	     -0.94591223	    -12.42314246	    -12.91074230	     -0.79451081	      0.98071608	      0.33071810	    -23.17720136	     11.10744000	     14.68865717	    -14.36111605	     -2.18221518	    -15.97867385	     24.88859514	     23.10982396	    -16.52901471	      9.17865372	     -5.74316263	      0.00000000	      0.00000000	      0.00000000	      0.00000000	     -0.00894998	      0.00000000	     -0.47483925	    -12.12653331	      9.53696588	     20.63603036
